<svg width="90" height="82" viewBox="0 0 90 82" fill="none" xmlns="http://www.w3.org/2000/svg">
<path fill-rule="evenodd" clip-rule="evenodd" d="M33.7649 66.331C33.7553 66.6862 33.6074 67.0237 33.3527 67.2715C33.0981 67.5194 32.7568 67.6581 32.4014 67.6581C32.046 67.6581 31.7047 67.5194 31.45 67.2715C31.1954 67.0237 31.0475 66.6862 31.0379 66.331V65.214C29.7457 64.9054 28.5951 64.1705 27.7718 63.1278C26.9485 62.0852 26.5004 60.7955 26.4999 59.467C26.495 59.2848 26.5266 59.1035 26.5929 58.9338C26.6592 58.764 26.7588 58.6093 26.8859 58.4787C27.013 58.3481 27.165 58.2443 27.3329 58.1735C27.5008 58.1026 27.6812 58.0661 27.8634 58.0661C28.0456 58.0661 28.226 58.1026 28.3939 58.1735C28.5618 58.2443 28.7138 58.3481 28.8409 58.4787C28.968 58.6093 29.0676 58.764 29.1339 58.9338C29.2002 59.1035 29.2318 59.2848 29.2269 59.467C29.2271 60.2679 29.5296 61.0393 30.0739 61.6268C30.6182 62.2144 31.3643 62.5748 32.1629 62.636C32.2428 62.6216 32.3237 62.6142 32.4049 62.614C32.4861 62.6142 32.567 62.6215 32.6469 62.636C33.4457 62.5752 34.192 62.215 34.7364 61.6273C35.2808 61.0397 35.5832 60.2681 35.5829 59.467C35.5852 59.0893 35.5115 58.7151 35.3661 58.3665C35.2208 58.0179 35.0068 57.7022 34.7369 57.438C34.0639 56.8018 33.2057 56.3966 32.2869 56.281C32.2499 56.281 32.2129 56.273 32.1759 56.267C30.6455 56.0462 29.2202 55.3594 28.0939 54.3C27.5762 53.7884 27.1675 53.1772 26.8925 52.5033C26.6175 51.8294 26.4819 51.1068 26.4939 50.379C26.4943 49.0498 26.9428 47.7596 27.7669 46.7168C28.5911 45.674 29.7428 44.9395 31.0359 44.632V43.519C31.031 43.3368 31.0626 43.1555 31.1289 42.9858C31.1952 42.816 31.2948 42.6613 31.4219 42.5307C31.549 42.4001 31.701 42.2963 31.8689 42.2255C32.0368 42.1546 32.2172 42.1181 32.3994 42.1181C32.5816 42.1181 32.762 42.1546 32.9299 42.2255C33.0978 42.2963 33.2498 42.4001 33.3769 42.5307C33.504 42.6613 33.6036 42.816 33.6699 42.9858C33.7362 43.1555 33.7678 43.3368 33.7629 43.519V44.636C35.056 44.9435 36.2077 45.678 37.0318 46.7208C37.856 47.7636 38.3045 49.0538 38.3049 50.383C38.3049 50.7448 38.1612 51.0917 37.9054 51.3475C37.6496 51.6033 37.3027 51.747 36.9409 51.747C36.5791 51.747 36.2322 51.6033 35.9764 51.3475C35.7206 51.0917 35.5769 50.7448 35.5769 50.383C35.5772 49.5819 35.2748 48.8103 34.7304 48.2227C34.186 47.635 33.4397 47.2748 32.6409 47.214C32.561 47.2282 32.48 47.2352 32.3989 47.235C32.3178 47.2351 32.2368 47.2281 32.1569 47.214C31.3583 47.2752 30.6122 47.6356 30.0679 48.2232C29.5236 48.8107 29.2211 49.5821 29.2209 50.383C29.2126 50.752 29.2793 51.1189 29.4168 51.4614C29.5543 51.804 29.7598 52.1151 30.0209 52.376C30.7473 53.0333 31.6566 53.4539 32.6279 53.582L32.6629 53.589C34.1674 53.7851 35.5693 54.4584 36.6629 55.51C37.1888 56.0254 37.6055 56.6413 37.8883 57.3211C38.1711 58.0009 38.3141 58.7307 38.3089 59.467C38.3082 60.7961 37.8595 62.0861 37.0354 63.1289C36.2113 64.1716 35.0598 64.9062 33.7669 65.214V66.331H33.7649ZM39.9649 22.19H24.0999C23.5848 22.19 23.0909 22.3946 22.7267 22.7588C22.3625 23.123 22.1579 23.617 22.1579 24.132C22.1579 24.6471 22.3625 25.141 22.7267 25.5052C23.0909 25.8694 23.5848 26.074 24.0999 26.074H39.9599C40.4749 26.074 40.9689 25.8694 41.3331 25.5052C41.6973 25.141 41.9019 24.6471 41.9019 24.132C41.9019 23.617 41.6973 23.123 41.3331 22.7588C40.9689 22.3946 40.4749 22.19 39.9599 22.19H39.9649ZM24.0999 19.463H39.9599C40.4186 19.4627 40.8748 19.5301 41.3139 19.663C43.279 16.8274 44.9646 13.8079 46.3469 10.647C47.4619 8.024 48.0469 6.024 47.7039 5.515C47.4734 5.27214 47.1901 5.08564 46.8759 4.97C46.1101 4.63925 45.3131 4.38599 44.4969 4.214C44.2469 4.156 44.3039 4.806 43.8339 5.37C42.8009 6.611 41.7079 7.923 40.2219 7.751C38.8689 7.594 38.1099 6.262 37.3329 4.897C37.0304 4.32534 36.6966 3.77083 36.3329 3.236C35.6119 3.202 34.6439 3.966 33.6739 4.736C32.3859 5.754 31.0929 6.776 29.4739 6.836C27.9819 6.895 26.7429 5.855 25.5409 4.846C24.7839 4.21 24.0479 3.592 23.7989 3.623C22.1398 3.80041 20.5001 4.1274 18.8999 4.6C18.2295 4.74314 17.6086 5.06046 17.0999 5.52C16.7669 6.014 17.3259 7.952 18.3999 10.51C19.7669 13.6681 21.4374 16.6859 23.3879 19.521C23.6232 19.4852 23.8609 19.4672 24.0989 19.467L24.0999 19.463ZM73.7639 59.048L76.7169 56.1L74.9929 54.376C74.7772 54.1601 74.6402 53.8781 74.6039 53.5751C74.5677 53.2721 74.6342 52.9657 74.7929 52.705C75.4945 51.5617 76.0165 50.3176 76.3409 49.016C76.3923 48.6957 76.5561 48.4043 76.8029 48.1939C77.0498 47.9835 77.3635 47.868 77.6879 47.868H80.1249V43.685H77.6899V43.68C77.385 43.6802 77.089 43.5779 76.8494 43.3894C76.6097 43.2009 76.4405 42.9373 76.3689 42.641C76.2068 41.9715 75.9932 41.3155 75.7299 40.679C75.4783 40.0734 75.1818 39.4874 74.8429 38.926C74.6574 38.6631 74.5708 38.3432 74.5982 38.0226C74.6256 37.7021 74.7654 37.4015 74.9929 37.174L76.7169 35.45L73.7639 32.5L72.0389 34.224C71.8233 34.4398 71.5414 34.5768 71.2385 34.6131C70.9356 34.6494 70.6294 34.5828 70.3689 34.424C69.7815 34.0653 69.167 33.753 68.5309 33.49C67.929 33.2413 67.3097 33.0371 66.6779 32.879C66.3577 32.8275 66.0664 32.6636 65.856 32.4168C65.6457 32.1699 65.53 31.8563 65.5299 31.532V29.086H61.3529V31.524C61.3525 31.8289 61.2498 32.1248 61.0613 32.3643C60.8727 32.6038 60.6091 32.7731 60.3129 32.845C59.6452 33.0067 58.9912 33.2204 58.3569 33.484C57.7515 33.7356 57.1655 34.0318 56.6039 34.37C56.3414 34.5559 56.0216 34.6429 55.7011 34.6157C55.3807 34.5884 55.0802 34.4486 54.8529 34.221L53.1189 32.5L50.1659 35.45L51.8899 37.174C52.1056 37.3899 52.2426 37.6719 52.2789 37.9749C52.3151 38.2779 52.2486 38.5843 52.0899 38.845C51.7432 39.4115 51.4393 40.0032 51.1809 40.615C51.1729 40.638 51.1649 40.66 51.1549 40.683C50.9053 41.2844 50.7005 41.9035 50.5419 42.535C50.4905 42.8553 50.3267 43.1467 50.0799 43.3571C49.833 43.5675 49.5192 43.6831 49.1949 43.683H46.7549V47.859H49.1919C49.4969 47.8588 49.7931 47.9613 50.0327 48.15C50.2723 48.3387 50.4415 48.6025 50.5129 48.899C50.6752 49.5666 50.8892 50.2206 51.1529 50.855C51.4037 51.4611 51.6999 52.0474 52.0389 52.609C52.2244 52.8716 52.3112 53.1913 52.284 53.5117C52.2567 53.8321 52.1171 54.1325 51.8899 54.36L50.1659 56.1L53.1189 59.053L54.8429 57.329C55.0585 57.1132 55.3404 56.9762 55.6433 56.9399C55.9461 56.9036 56.2524 56.9702 56.5129 57.129C57.6572 57.8292 58.9015 58.3512 60.2029 58.677C60.5231 58.7282 60.8145 58.8918 61.0249 59.1385C61.2353 59.3851 61.3509 59.6988 61.3509 60.023V62.461H65.5269V60.021C65.5274 59.7162 65.6302 59.4204 65.8187 59.1809C66.0073 58.9414 66.2707 58.7721 66.5669 58.7C67.212 58.5445 67.8444 58.3406 68.4589 58.09L68.5229 58.061C69.1305 57.8098 69.7184 57.5137 70.2819 57.175C70.5444 56.9891 70.8642 56.9021 71.1846 56.9293C71.5051 56.9566 71.8056 57.0964 72.0329 57.324L73.7579 59.048H73.7639ZM61.9069 65.186H61.1069C60.7818 65.1858 60.4599 65.1214 60.1598 64.9964C59.8596 64.8715 59.5871 64.6885 59.3579 64.458C59.127 64.228 58.9439 63.9546 58.819 63.6536C58.694 63.3526 58.6298 63.0299 58.6299 62.704V61.052C58.1839 60.912 57.7459 60.752 57.3189 60.576C56.8919 60.4 56.4579 60.197 56.0449 59.982L54.8729 61.15C54.8369 61.186 54.7989 61.22 54.7599 61.25C54.2872 61.6699 53.672 61.8933 53.04 61.8747C52.4081 61.8562 51.8071 61.5969 51.3599 61.15L48.0599 57.85C48.0244 57.8153 47.991 57.7786 47.9599 57.74C47.5392 57.2687 47.3152 56.6541 47.3338 56.0226C47.3524 55.3911 47.6122 54.7908 48.0599 54.345L49.2279 53.177C49.0139 52.767 48.8166 52.3443 48.6359 51.909C48.4589 51.482 48.2999 51.042 48.1579 50.592H46.5099C45.8521 50.5902 45.2219 50.3273 44.7579 49.861C44.5269 49.6311 44.3436 49.3578 44.2187 49.0567C44.0937 48.7557 44.0296 48.4329 44.0299 48.107V43.439C44.0297 43.1131 44.0939 42.7904 44.2188 42.4893C44.3438 42.1883 44.527 41.915 44.7579 41.685C44.794 41.6496 44.8321 41.6162 44.8719 41.585C45.3236 41.1827 45.9071 40.96 46.5119 40.959H48.1619C48.3039 40.509 48.4632 40.0703 48.6399 39.643C48.6499 39.619 48.6609 39.596 48.6719 39.573C48.8439 39.163 49.0312 38.763 49.2339 38.373L48.0659 37.205C47.6927 36.8319 47.4482 36.3496 47.368 35.828C47.2878 35.3065 47.376 34.773 47.6199 34.305C46.6859 33.235 45.7459 32.205 44.8129 31.228C43.8459 30.213 42.8839 29.252 41.9449 28.355C41.3249 28.6481 40.6476 28.7997 39.9619 28.799H24.0999C23.6049 28.7994 23.1131 28.7207 22.6429 28.566C16.2429 34.726 8.80389 43.896 5.07589 52.787C3.17789 57.3 2.25489 61.712 2.95189 65.543C3.62689 69.255 5.86989 72.487 10.3079 74.816C15.0169 77.287 22.1459 78.757 32.4009 78.757C42.6559 78.757 49.7919 77.284 54.5009 74.809C59.0609 72.409 61.3009 69.05 61.9069 65.186ZM78.8179 57.85C79.2828 57.3843 79.544 56.7531 79.544 56.095C79.544 55.4369 79.2828 54.8057 78.8179 54.34L77.6499 53.172C77.8646 52.76 78.0626 52.3357 78.2439 51.899C78.4209 51.472 78.5799 51.034 78.7209 50.588H80.3729C81.0308 50.5872 81.6616 50.3254 82.1267 49.8601C82.5918 49.3948 82.8534 48.7639 82.8539 48.106V43.439C82.8541 43.1132 82.79 42.7905 82.6652 42.4895C82.5404 42.1886 82.3575 41.9152 82.1269 41.685C81.8978 41.4546 81.6255 41.2716 81.3255 41.1467C81.0255 41.0218 80.7038 40.9573 80.3789 40.957H78.7209C78.5796 40.511 78.4206 40.074 78.2439 39.646C78.0672 39.218 77.8692 38.7937 77.6499 38.373L78.8179 37.205C79.2828 36.7393 79.544 36.1081 79.544 35.45C79.544 34.7919 79.2828 34.1607 78.8179 33.695L75.5179 30.395C75.0521 29.9306 74.4211 29.6698 73.7634 29.6698C73.1056 29.6698 72.4747 29.9306 72.0089 30.395L70.8419 31.563C70.4279 31.347 70.0049 31.1493 69.5729 30.97C69.1449 30.792 68.7076 30.633 68.2609 30.493V28.841C68.2612 28.5151 68.1971 28.1923 68.0721 27.8913C67.9472 27.5902 67.7639 27.3169 67.5329 27.087C67.3038 26.8566 67.0315 26.6736 66.7315 26.5487C66.4315 26.4238 66.1098 26.3593 65.7849 26.359H61.1079C60.7828 26.3592 60.4609 26.4236 60.1608 26.5486C59.8606 26.6735 59.5881 26.8565 59.3589 27.087C59.1286 27.3164 58.9457 27.5889 58.8208 27.889C58.6959 28.1891 58.6313 28.5109 58.6309 28.836V30.487C58.1802 30.6283 57.7412 30.7877 57.3139 30.965C56.8799 31.145 56.4572 31.342 56.0459 31.556L54.8729 30.4C54.4265 29.9515 53.8253 29.6912 53.1928 29.6726C52.5604 29.654 51.9448 29.8786 51.4729 30.3C51.4349 30.3314 51.3985 30.3648 51.3639 30.4L49.4639 32.3C48.5639 31.28 47.6699 30.3 46.7779 29.364C45.8249 28.364 44.8779 27.419 43.9609 26.535C44.455 25.7129 44.6826 24.7581 44.6126 23.8015C44.5426 22.8449 44.1784 21.9334 43.5699 21.192C45.6293 18.2124 47.3965 15.041 48.8469 11.722C50.3089 8.282 50.8629 5.342 49.9589 4.001C49.4583 3.33476 48.787 2.81615 48.0159 2.5C47.0792 2.09143 46.104 1.77754 45.1049 1.563C43.7339 1.248 42.7669 2.409 41.7459 3.635C41.1729 4.324 40.5669 5.051 40.5299 5.047C40.5129 5.047 40.1299 4.312 39.6979 3.557C38.8649 2.095 38.0109 0.596002 36.4649 0.522002C34.7349 0.439002 33.3649 1.522 31.9949 2.605C31.2681 3.32935 30.3657 3.85244 29.3759 4.123C28.9389 4.14 28.1059 3.44 27.2959 2.761C26.0779 1.738 24.8959 0.746002 23.4769 0.920002C21.6444 1.11672 19.8339 1.48091 18.0679 2.008C16.8074 2.30837 15.676 3.0039 14.8389 3.993C13.9449 5.319 14.4689 8.193 15.8829 11.561C17.2693 14.7652 18.9537 17.832 20.9139 20.721C20.8749 20.758 20.8349 20.796 20.7969 20.835C19.9956 21.6322 19.512 22.6938 19.4364 23.8215C19.3607 24.9493 19.6983 26.066 20.3859 26.963C13.8519 33.325 6.36689 42.649 2.55689 51.734C0.476894 56.695 -0.523107 61.618 0.277893 66.023C1.10089 70.547 3.77789 74.457 9.05089 77.223C14.1419 79.894 21.6909 81.483 32.4009 81.483C43.1109 81.483 50.6789 79.891 55.7689 77.216C61.3689 74.274 64.0339 70.054 64.6559 65.185H65.7749C66.3818 65.1846 66.9672 64.9603 67.4189 64.555C67.4572 64.5238 67.4936 64.4905 67.5279 64.455C67.7589 64.2251 67.9422 63.9518 68.0671 63.6507C68.1921 63.3497 68.2562 63.0269 68.2559 62.701V61.052C68.6792 60.9187 69.0939 60.769 69.4999 60.603C69.5249 60.595 69.5489 60.585 69.5729 60.575C70.0049 60.397 70.4279 60.1997 70.8419 59.983L72.0089 61.15C72.4557 61.5957 73.0557 61.8542 73.6866 61.8728C74.3174 61.8913 74.9316 61.6686 75.4039 61.25C75.4437 61.2188 75.4817 61.1854 75.5179 61.15L78.8179 57.85ZM68.2289 40.984C69.3366 42.092 70.0259 43.5498 70.1793 45.109C70.3327 46.6682 69.9407 48.2324 69.0701 49.535C68.1995 50.8376 66.9042 51.798 65.4048 52.2527C63.9055 52.7073 62.2949 52.6279 60.8475 52.0282C59.4001 51.4284 58.2054 50.3453 57.467 48.9635C56.7287 47.5816 56.4923 45.9865 56.7982 44.4499C57.104 42.9133 57.9333 41.5303 59.1445 40.5365C60.3558 39.5428 61.8741 38.9998 63.4409 39C64.3302 38.9991 65.211 39.1738 66.0326 39.5141C66.8543 39.8544 67.6006 40.3546 68.2289 40.984ZM63.4409 36.274C65.6388 36.2738 67.7689 37.0357 69.468 38.4299C71.1672 39.8241 72.3303 41.7644 72.7593 43.9201C73.1882 46.0757 72.8564 48.3135 71.8204 50.2519C70.7843 52.1904 69.1082 53.7096 67.0776 54.5508C65.047 55.3919 62.7875 55.503 60.6842 54.8649C58.5809 54.2269 56.7639 52.8793 55.5428 51.0517C54.3218 49.2241 53.7722 47.0297 53.9877 44.8424C54.2033 42.655 55.1706 40.6101 56.7249 39.056C57.6058 38.1726 58.6526 37.4721 59.8052 36.9946C60.9578 36.5172 62.1934 36.2723 63.4409 36.274ZM76.3269 70.153C76.499 70.1999 76.6602 70.2802 76.8012 70.3894C76.9423 70.4985 77.0605 70.6344 77.149 70.7893C77.2375 70.9441 77.2947 71.1149 77.3173 71.2918C77.3398 71.4688 77.3273 71.6484 77.2804 71.8205C77.2335 71.9926 77.1532 72.1538 77.044 72.2948C76.9348 72.4359 76.799 72.5541 76.6441 72.6426C76.4893 72.7311 76.3185 72.7883 76.1416 72.8109C75.9646 72.8334 75.785 72.8209 75.6129 72.774L70.1799 71.287C69.9993 71.2439 69.8294 71.1643 69.6808 71.053C69.5321 70.9417 69.4079 70.8011 69.3157 70.6399C69.2235 70.4788 69.1653 70.3004 69.1447 70.1159C69.1241 69.9313 69.1415 69.7445 69.1959 69.567L70.6839 64.133C70.7281 63.9581 70.8068 63.7938 70.9153 63.6496C71.0238 63.5054 71.1599 63.3843 71.3157 63.2933C71.4715 63.2024 71.6439 63.1434 71.8227 63.1197C72.0016 63.0961 72.1834 63.1084 72.3575 63.1559C72.5315 63.2033 72.6944 63.2849 72.8366 63.396C72.9787 63.5071 73.0974 63.6454 73.1855 63.8029C73.2736 63.9603 73.3294 64.1338 73.3498 64.313C73.3701 64.4923 73.3545 64.6738 73.3039 64.847L72.4869 67.83C77.9839 65.5642 82.436 61.3265 84.97 55.9478C87.5039 50.5692 87.9369 44.438 86.184 38.7566C84.4311 33.0753 80.6188 28.2538 75.4948 25.238C70.3708 22.2222 64.3049 21.2296 58.4869 22.455C56.867 22.7964 55.2873 23.3069 53.7739 23.978C53.6109 24.0502 53.4353 24.0896 53.2571 24.094C53.0789 24.0984 52.9016 24.0676 52.7353 24.0034C52.569 23.9393 52.4169 23.843 52.2878 23.72C52.1587 23.5971 52.0551 23.45 51.9829 23.287C51.9107 23.124 51.8712 22.9484 51.8669 22.7702C51.8625 22.592 51.8933 22.4147 51.9575 22.2484C52.0216 22.0821 52.1179 21.93 52.2408 21.8009C52.3638 21.6718 52.5109 21.5682 52.6739 21.496C58.0447 19.1111 64.0548 18.5752 69.7628 19.9722C75.4708 21.3693 80.5541 24.6204 84.2163 29.2162C87.8785 33.8119 89.9127 39.4927 90.0002 45.3685C90.0878 51.2444 88.2236 56.9832 84.6999 61.686C82.1189 65.1292 78.7428 67.8963 74.8599 69.751L76.3269 70.153Z" fill="white"/>
</svg>
