<svg width="50" height="64" viewBox="0 0 50 64" fill="none" xmlns="http://www.w3.org/2000/svg">
<path d="M45.3714 18.8568C48.5864 14.6518 44.8404 8.42282 39.7094 9.18582C40.3974 4.01882 34.2074 0.427819 30.0754 3.55782C27.9714 -1.28518 20.8714 -1.11818 18.8974 3.65782C14.7234 0.451819 8.4984 4.08682 9.2054 9.27982C4.0024 8.56882 0.391404 14.8448 3.6184 18.9868C-1.2226 20.9678 -1.2006 28.2318 3.6514 30.2018C0.474404 34.3628 4.1274 40.6418 9.3174 39.8898C9.1114 41.3978 9.5184 42.7438 10.2384 43.8308L3.4684 58.0138C3.1854 58.6068 3.7504 59.2488 4.3724 59.0518L11.1964 56.8868L13.7044 63.4928C13.9384 64.1098 14.7984 64.1458 15.0824 63.5498L22.2104 48.6158C23.7674 49.2558 25.3864 49.2158 26.8164 48.6238L33.9494 63.5498C34.2334 64.1438 35.0934 64.1108 35.3274 63.4928L37.8354 56.8868C38.0794 56.9638 44.6324 59.0688 44.8874 59.0868C45.4994 59.1208 45.8804 58.3748 45.4864 57.8738L38.8124 43.8818C39.6284 42.6668 39.9744 41.2158 39.7964 39.7778C44.9984 40.5078 48.6254 34.1998 45.3974 30.0608C50.2584 28.0468 50.2174 20.8518 45.3714 18.8568ZM14.4824 61.3198L12.3454 55.6908C12.2044 55.3178 11.7994 55.1208 11.4174 55.2418L5.5664 57.0978L11.3104 45.0638C13.4714 46.9758 16.6374 47.2558 18.9494 45.4868C19.3834 46.4438 20.0614 47.2508 20.9034 47.8678L14.4824 61.3198ZM37.6114 55.2418C37.2334 55.1208 36.8244 55.3178 36.6834 55.6908L34.5454 61.3218L28.1254 47.8868C29.0034 47.2438 29.6894 46.3778 30.1164 45.3838C32.3984 47.0838 35.5824 46.9768 37.7344 45.1098L43.4524 57.0988L37.6114 55.2418ZM43.8674 28.9608C43.2574 29.0828 43.0514 29.8558 43.5244 30.2638C45.6154 32.0668 45.3364 34.4818 44.4614 36.0008C43.5904 37.5138 41.6484 38.9598 39.0394 38.0568C38.4444 37.8548 37.8824 38.4238 38.0854 39.0108C39.7084 43.7168 33.6394 47.3038 30.3164 43.5398C29.9024 43.0718 29.1394 43.2858 29.0184 43.8878C28.0454 48.7198 21.1524 48.8028 20.0134 43.9838C19.8744 43.3948 19.1304 43.2038 18.7244 43.6558C15.4564 47.3098 9.4084 43.7638 11.0414 39.1138C11.2504 38.5188 10.6734 37.9478 10.0824 38.1588C5.3734 39.8348 1.7854 33.6828 5.5194 30.3878C5.9864 29.9758 5.7764 29.2068 5.1644 29.0888C0.276404 28.1518 0.260404 21.0258 5.1434 20.0928C5.7564 19.9748 5.9674 19.1978 5.4924 18.7878C1.7154 15.5288 5.2264 9.38582 9.9714 10.9948C10.5644 11.1948 11.1234 10.6288 10.9224 10.0408C9.3074 5.33382 15.3914 1.76982 18.7004 5.52082C18.8894 5.73382 19.1844 5.82282 19.4574 5.74882C19.7324 5.67482 19.9424 5.45182 19.9984 5.17182C20.9764 0.30182 27.9064 0.28182 28.9924 5.06082C29.0544 5.33382 29.2634 5.54982 29.5344 5.62082C29.8054 5.69182 30.0934 5.60582 30.2804 5.39682C33.5654 1.75082 39.6024 5.29282 37.9844 9.96982C37.7794 10.5638 38.3554 11.1348 38.9504 10.9198C41.3574 10.0418 43.4104 11.2858 44.3764 12.9068C45.2724 14.4098 45.5834 16.8208 43.5054 18.6638C43.0434 19.0748 43.2494 19.8378 43.8554 19.9598C48.7394 20.9418 48.7734 27.9788 43.8674 28.9608Z" fill="white"/>
<path d="M24.5145 7.09583C14.9035 7.09583 7.08447 14.9148 7.08447 24.5258C7.08447 34.1368 14.9035 41.9558 24.5145 41.9558C34.1255 41.9558 41.9445 34.1368 41.9445 24.5258C41.9445 14.9158 34.1245 7.09583 24.5145 7.09583ZM24.5145 40.4568C15.7305 40.4568 8.58447 33.3108 8.58447 24.5268C8.58447 15.7428 15.7305 8.59683 24.5145 8.59683C33.2985 8.59683 40.4445 15.7438 40.4445 24.5268C40.4445 33.3098 33.2975 40.4568 24.5145 40.4568Z" fill="white"/>
<path d="M27.7614 18.6838L29.5774 15.4948C29.9074 14.9208 29.9924 14.2528 29.8164 13.6138C29.6404 12.9738 29.2254 12.4418 28.6514 12.1178C27.5054 11.4628 25.9294 11.8938 25.2664 13.0458L22.8894 17.2188C22.3744 18.1228 21.4094 18.6838 20.3684 18.6838C17.4324 18.6838 15.6074 18.6838 12.8064 18.6838C12.3924 18.6838 12.0564 19.0198 12.0564 19.4338V32.5078C12.0564 32.9218 12.3924 33.2578 12.8064 33.2578H19.1764C19.5384 33.2578 19.8254 32.9968 19.8964 32.6558C20.7684 33.4948 21.9474 34.0178 23.2494 34.0178H34.4824C36.8954 34.0178 37.6214 31.2478 36.2994 29.8108C37.1474 28.8888 37.1884 27.3178 36.2954 26.3558C37.1534 25.4218 37.1804 23.8448 36.2954 22.8918C37.6384 21.4348 36.8664 18.6838 34.4824 18.6838H27.7614ZM13.5574 31.7578V20.1838H18.4054C18.4054 27.9228 18.4274 31.1728 18.4274 31.7578H13.5574ZM34.4834 22.1398H30.7194C30.3054 22.1398 29.9694 22.4758 29.9694 22.8898C29.9694 23.3038 30.3054 23.6398 30.7194 23.6398H34.4834C35.8054 23.6398 35.7454 25.5768 34.5104 25.6018C34.5014 25.6018 34.4924 25.5968 34.4834 25.5968H30.7194C30.3054 25.5968 29.9694 25.9328 29.9694 26.3468C29.9694 26.7608 30.3054 27.0968 30.7194 27.0968H34.4394C34.4544 27.0978 34.4674 27.1058 34.4824 27.1058C35.8024 27.1058 35.7494 29.0348 34.5084 29.0588C34.4994 29.0588 34.4914 29.0538 34.4824 29.0538H30.7184C30.3044 29.0538 29.9684 29.3898 29.9684 29.8038C29.9684 30.2178 30.3044 30.5538 30.7184 30.5538H34.4414C34.4554 30.5548 34.4674 30.5618 34.4824 30.5618C35.7754 30.5618 35.7964 32.5178 34.4824 32.5178H23.2504C21.4814 32.5178 20.0444 31.1338 19.9274 29.3938V20.1838H20.3694C21.9474 20.1838 23.4124 19.3318 24.1934 17.9608L26.5684 13.7908C26.8354 13.3298 27.4404 13.1538 27.9114 13.4218C28.1384 13.5498 28.3014 13.7588 28.3694 14.0108C28.4384 14.2608 28.4054 14.5228 28.2744 14.7498L25.8174 19.0628C25.6854 19.2948 25.6864 19.5798 25.8204 19.8108C25.9544 20.0418 26.2014 20.1838 26.4684 20.1838H34.4814C35.7984 20.1838 35.7514 22.1398 34.4834 22.1398Z" fill="white"/>
</svg>
