<svg width="90" height="90" viewBox="0 0 90 90" fill="none" xmlns="http://www.w3.org/2000/svg">
<path d="M13.152 56.105H1.09705C0.491576 56.105 -0.000654013 56.5972 -0.000654013 57.2027V88.9017C-0.000654013 89.5072 0.491536 89.9994 1.09705 89.9994H13.152C13.7575 89.9994 14.2497 89.5072 14.2497 88.9017V57.2027C14.2497 56.5972 13.7576 56.105 13.152 56.105ZM12.0543 87.804H2.19495V58.296H12.0543V87.804ZM38.4023 37.702H26.3473C25.7419 37.702 25.2496 38.1942 25.2496 38.7997V88.9017C25.2496 89.5072 25.7418 89.9994 26.3473 89.9994H38.4023C39.0078 89.9994 39.5 89.5072 39.5 88.9017V38.7997C39.5 38.1942 39.0079 37.702 38.4023 37.702ZM37.3046 87.804H27.4452V39.898H37.3046V87.804ZM88.9026 -0.000990868H76.8476C76.2422 -0.000990868 75.7499 0.491199 75.7499 1.09671V26.2217C74.078 25.753 72.3202 25.4991 70.4999 25.4991C68.4999 25.4991 66.5702 25.8037 64.7499 26.3662V20.0693C64.7499 19.4639 64.2578 18.9716 63.6522 18.9716H51.5972C50.9918 18.9716 50.4995 19.4638 50.4995 20.0693V88.9013C50.4995 89.5068 50.9917 89.999 51.5972 89.999H63.6522C64.2577 89.999 64.7499 89.5068 64.7499 88.9013V63.6353C66.5663 64.1978 68.4999 64.5025 70.4999 64.5025C72.3202 64.5025 74.078 64.2486 75.7499 63.7799V88.9049C75.7499 89.5103 76.2421 90.0026 76.8476 90.0026H88.9026C89.5081 90.0026 90.0003 89.5104 90.0003 88.9049V1.09587C90.0003 0.490399 89.5082 -0.000990868 88.9026 -0.000990868ZM62.5546 21.167V27.1982C58.1796 29.1591 54.6523 32.6826 52.6952 37.0615V21.1705H62.5546V21.167ZM62.5546 87.804H52.6952V52.941C54.6561 57.316 58.1796 60.8433 62.5546 62.8043V87.8083V87.804ZM53.1913 44.999C53.1913 35.456 60.953 27.694 70.4963 27.694C80.0393 27.694 87.8013 35.4557 87.8013 44.999C87.8013 54.5423 80.0396 62.304 70.4963 62.304C60.9533 62.304 53.1913 54.5423 53.1913 44.999ZM87.8043 87.804H77.9449V63.019C82.1988 61.2534 85.691 58.0268 87.8043 53.9721V87.804ZM77.9449 26.98V2.19501H87.8043V36.027C85.691 31.9684 82.1949 28.7417 77.9449 26.98ZM1.09695 30.1519H13.8549L10.5737 49.2459C10.4878 49.7576 10.7652 50.2576 11.2456 50.449C11.3784 50.5037 11.5191 50.5271 11.6558 50.5271C12.0113 50.5271 12.3589 50.3553 12.5659 50.0428L31.4329 22.0858C31.6595 21.7498 31.6829 21.3162 31.4915 20.9569C31.3001 20.5975 30.929 20.3748 30.5228 20.3748H17.7648L21.046 1.28082C21.1319 0.769104 20.8546 0.269124 20.3741 0.077724C19.8936 -0.113676 19.3429 0.054287 19.0538 0.483974L0.18681 28.437C-0.0397502 28.7729 -0.06319 29.2065 0.128216 29.5659C0.319622 29.9252 0.690716 30.1479 1.09697 30.1479L1.09695 30.1519ZM18.0189 5.94491L15.3822 21.2929C15.3276 21.6132 15.4174 21.9374 15.6244 22.1874C15.8315 22.4335 16.1401 22.5781 16.4643 22.5781H28.4603L13.6053 44.5901L16.242 29.2421C16.2967 28.9217 16.2068 28.5975 15.9998 28.3475C15.7928 28.1014 15.4842 27.9569 15.1599 27.9569H3.16395L18.0189 5.94491ZM66.7489 40.1559C66.7489 42.2223 68.4286 43.9059 70.4989 43.9059C73.7762 43.9059 76.4403 46.5739 76.4403 49.8473C76.4403 52.7496 74.3505 55.1676 71.5965 55.6832V57.5816C71.5965 58.1871 71.1044 58.6793 70.4988 58.6793C69.8933 58.6793 69.4011 58.1871 69.4011 57.5816V55.6832C66.6472 55.1676 64.5534 52.7457 64.5534 49.8473C64.5534 49.2418 65.0456 48.7496 65.6511 48.7496C66.2566 48.7496 66.7488 49.2418 66.7488 49.8473C66.7488 51.9137 68.4285 53.5973 70.4988 53.5973C72.5652 53.5973 74.2488 51.9176 74.2488 49.8473C74.2488 47.7809 72.5691 46.0973 70.4988 46.0973C67.2215 46.0973 64.5535 43.4293 64.5535 40.152C64.5535 37.2497 66.6473 34.8317 69.4012 34.3161V32.4177C69.4012 31.8122 69.8934 31.32 70.4989 31.32C71.1045 31.32 71.5966 31.8122 71.5966 32.4177V34.3161C74.3505 34.8317 76.4404 37.2497 76.4404 40.152C76.4404 40.7575 75.9483 41.2497 75.3427 41.2497C74.7372 41.2497 74.245 40.7575 74.245 40.152C74.245 38.0856 72.5653 36.4059 70.495 36.4059C68.4286 36.4059 66.745 38.0856 66.745 40.152L66.7489 40.1559Z" fill="white"/>
</svg>
