<svg width="72" height="42" viewBox="0 0 72 42" fill="none" xmlns="http://www.w3.org/2000/svg">
<path d="M18.41 7.5H23.625L27.615 32H23.765L23.065 27.135V27.205H18.69L17.99 32H14.42L18.41 7.5ZM22.61 23.88L20.895 11.77H20.825L19.145 23.88H22.61ZM29.4829 7.5H35.1879C37.1712 7.5 38.6179 7.96667 39.5279 8.9C40.4379 9.81 40.8929 11.2217 40.8929 13.135V14.64C40.8929 17.1833 40.0529 18.7933 38.3729 19.47V19.54C39.3062 19.82 39.9595 20.3917 40.3329 21.255C40.7295 22.1183 40.9279 23.2733 40.9279 24.72V29.025C40.9279 29.725 40.9512 30.2967 40.9979 30.74C41.0445 31.16 41.1612 31.58 41.3479 32H37.4279C37.2879 31.6033 37.1945 31.23 37.1479 30.88C37.1012 30.53 37.0779 29.9 37.0779 28.99V24.51C37.0779 23.39 36.8912 22.6083 36.5179 22.165C36.1679 21.7217 35.5495 21.5 34.6629 21.5H33.3329V32H29.4829V7.5ZM34.7329 18C35.5029 18 36.0745 17.8017 36.4479 17.405C36.8445 17.0083 37.0429 16.3433 37.0429 15.41V13.52C37.0429 12.6333 36.8795 11.9917 36.5529 11.595C36.2495 11.1983 35.7595 11 35.0829 11H33.3329V18H34.7329ZM49.1641 32.35C47.2741 32.35 45.8274 31.8133 44.8241 30.74C43.8207 29.6667 43.3191 28.15 43.3191 26.19V13.31C43.3191 11.35 43.8207 9.83333 44.8241 8.76C45.8274 7.68667 47.2741 7.15 49.1641 7.15C51.0541 7.15 52.5007 7.68667 53.5041 8.76C54.5074 9.83333 55.0091 11.35 55.0091 13.31V26.19C55.0091 28.15 54.5074 29.6667 53.5041 30.74C52.5007 31.8133 51.0541 32.35 49.1641 32.35ZM49.1641 28.85C50.4941 28.85 51.1591 28.045 51.1591 26.435V13.065C51.1591 11.455 50.4941 10.65 49.1641 10.65C47.8341 10.65 47.1691 11.455 47.1691 13.065V26.435C47.1691 28.045 47.8341 28.85 49.1641 28.85ZM57.6127 7.5H62.4427L66.1877 22.165H66.2577V7.5H69.6877V32H65.7327L61.1127 14.115H61.0427V32H57.6127V7.5Z" fill="white"/>
<path d="M6.86 32.35C5.01667 32.35 3.605 31.825 2.625 30.775C1.66833 29.725 1.19 28.2433 1.19 26.33V13.17C1.19 11.2567 1.66833 9.775 2.625 8.725C3.605 7.675 5.01667 7.15 6.86 7.15C8.70333 7.15 10.1033 7.675 11.06 8.725C12.04 9.775 12.53 11.2567 12.53 13.17V15.76H8.89V12.925C8.89 11.4083 8.24833 10.65 6.965 10.65C5.68167 10.65 5.04 11.4083 5.04 12.925V26.61C5.04 28.1033 5.68167 28.85 6.965 28.85C8.24833 28.85 8.89 28.1033 8.89 26.61V22.865H12.53V26.33C12.53 28.2433 12.04 29.725 11.06 30.775C10.1033 31.825 8.70333 32.35 6.86 32.35Z" fill="#05abc3"/>
</svg>
