<svg width="832" height="446" viewBox="0 0 832 446" fill="none" xmlns="http://www.w3.org/2000/svg">
<path fill-rule="evenodd" clip-rule="evenodd" d="M692.5 99H139.5C70.1883 99 14 155.188 14 224.5C14 293.812 70.1883 350 139.5 350H692.5C761.812 350 818 293.812 818 224.5C818 155.188 761.812 99 692.5 99ZM139.5 85C62.4563 85 0 147.456 0 224.5C0 301.544 62.4563 364 139.5 364H692.5C769.544 364 832 301.544 832 224.5C832 147.456 769.544 85 692.5 85H139.5Z" fill="white"/>
<path d="M729.49 285.205C729.49 288.135 729.871 290.918 730.633 293.555C731.453 296.191 732.42 298.359 733.533 300.059C734.705 301.699 735.848 303.164 736.961 304.453C738.133 305.684 739.129 306.562 739.949 307.09L741.092 307.969V315H681.502L650.389 202.939V285.293C650.389 288.223 650.77 291.006 651.531 293.643C652.352 296.279 653.318 298.447 654.432 300.146C655.604 301.787 656.746 303.223 657.859 304.453C659.031 305.684 660.027 306.562 660.848 307.09L661.99 307.969H661.902V315H606.707V307.969C607 307.793 607.41 307.529 607.938 307.178C608.465 306.768 609.373 305.889 610.662 304.541C612.01 303.135 613.182 301.641 614.178 300.059C615.232 298.418 616.17 296.279 616.99 293.643C617.811 291.006 618.221 288.223 618.221 285.293V238.096L607.938 229.57L618.221 221.045V173.848C618.221 170.918 617.811 168.135 616.99 165.498C616.229 162.861 615.291 160.723 614.178 159.082C613.064 157.383 611.922 155.918 610.75 154.688C609.637 153.398 608.699 152.461 607.938 151.875L606.707 151.084V144.053H666.297L697.322 256.113V173.848C697.322 170.918 696.912 168.135 696.092 165.498C695.33 162.861 694.393 160.723 693.279 159.082C692.166 157.383 691.023 155.918 689.852 154.688C688.738 153.398 687.801 152.461 687.039 151.875L685.809 151.084V144.053H741.092V151.084C740.799 151.26 740.389 151.553 739.861 151.963C739.334 152.314 738.396 153.193 737.049 154.6C735.701 156.006 734.529 157.5 733.533 159.082C732.537 160.664 731.6 162.803 730.721 165.498C729.9 168.135 729.49 170.918 729.49 173.848V221.045L723 229.57L729.49 238.096V285.205Z" fill="white"/>
<path d="M582.889 221.045L575.5 228L582.889 238.096V284.062C582.889 305.977 567.449 316.992 536.57 317.109C505.809 317.109 490.428 306.094 490.428 284.062V238.096L499.5 229.57L490.428 221.045V174.902C490.428 152.93 505.809 141.943 536.57 141.943C567.449 141.943 582.889 152.93 582.889 174.902V221.045ZM550.721 274.482V184.57C550.721 177.539 546.062 173.994 536.746 173.936H536.482C527.225 173.936 522.596 177.48 522.596 184.57V274.482C522.596 281.572 527.254 285.117 536.57 285.117C546.004 285.117 550.721 281.572 550.721 274.482Z" fill="white"/>
<path d="M456.238 285.293C457.469 288.398 458.992 291.328 460.809 294.082C462.684 296.777 464.5 298.945 466.258 300.586C468.074 302.227 469.773 303.662 471.355 304.893C472.996 306.064 474.285 306.885 475.223 307.354L476.717 308.057V315.088H421.434V308.057C421.668 307.881 421.961 307.588 422.312 307.178C422.723 306.768 423.309 305.889 424.07 304.541C424.832 303.135 425.389 301.641 425.74 300.059C426.15 298.418 426.238 296.279 426.004 293.643C425.828 290.947 425.184 288.164 424.07 285.293L408.514 245.566H400.428V285.381C400.428 288.311 400.809 291.094 401.57 293.73C402.391 296.309 403.357 298.447 404.471 300.146C405.584 301.787 406.697 303.252 407.811 304.541C408.982 305.771 409.949 306.68 410.711 307.266L411.941 308.057V315.088H356.746V308.057C357.039 307.881 357.449 307.617 357.977 307.266C358.504 306.855 359.412 305.947 360.701 304.541C362.049 303.135 363.221 301.641 364.217 300.059C365.271 298.477 366.209 296.367 367.029 293.73C367.85 291.035 368.26 288.223 368.26 285.293V238.184L360.789 229L368.26 221.045V173.848C368.26 170.918 367.85 168.135 367.029 165.498C366.268 162.861 365.33 160.723 364.217 159.082C363.104 157.383 361.961 155.918 360.789 154.688C359.676 153.398 358.738 152.461 357.977 151.875L356.746 151.084V144.053H424.686C453.279 144.17 467.576 155.186 467.576 177.1V212.52C467.576 227.871 458.289 238.066 439.715 243.105L456.238 285.293ZM435.408 202.852V186.855C435.408 179.707 430.75 176.133 421.434 176.133H400.428V213.486H417.391C421.961 213.486 425.037 213.281 426.619 212.871C432.479 211.172 435.408 207.832 435.408 202.852Z" fill="white"/>
<path d="M325.279 285.328C325.924 288.492 326.891 291.451 328.18 294.205C329.527 296.9 330.875 299.068 332.223 300.709C333.629 302.291 334.977 303.668 336.266 304.84C337.555 305.953 338.609 306.744 339.43 307.213L340.66 307.916H340.484V314.947H285.904V307.916C286.021 307.857 286.197 307.74 286.432 307.564C286.666 307.389 287.135 307.008 287.838 306.422C288.6 305.777 289.244 305.074 289.771 304.312C290.299 303.551 290.914 302.555 291.617 301.324C292.379 300.035 292.877 298.658 293.111 297.193C293.404 295.729 293.639 293.971 293.814 291.92C293.99 289.869 293.785 287.672 293.199 285.328L273.5 212.5L256.988 281.461L256.285 285.328C255.699 288.668 255.523 291.627 255.758 294.205C256.051 296.725 256.607 298.863 257.428 300.621C258.307 302.32 259.186 303.727 260.064 304.84C261.002 305.895 261.822 306.686 262.525 307.213L263.58 307.916V314.947H209V307.916C209.293 307.74 209.703 307.506 210.23 307.213C210.816 306.861 211.842 306.07 213.307 304.84C214.83 303.609 216.207 302.203 217.438 300.621C218.727 299.039 220.045 296.9 221.393 294.205C222.74 291.451 223.736 288.492 224.381 285.328L234.4 238.043L244.596 229.518L238.004 220.992L248.023 173.795C248.609 170.631 248.785 167.818 248.551 165.357C248.375 162.896 247.877 160.787 247.057 159.029C246.295 157.213 245.475 155.719 244.596 154.547C243.717 153.375 242.926 152.496 242.223 151.91L241.256 151.031V144H308.404V151.031C308.287 151.148 308.111 151.295 307.877 151.471C307.643 151.646 307.174 152.086 306.471 152.789C305.826 153.492 305.211 154.254 304.625 155.074C304.098 155.836 303.541 156.891 302.955 158.238C302.369 159.586 301.9 160.992 301.549 162.457C301.256 163.863 301.08 165.562 301.021 167.555C301.021 169.547 301.256 171.627 301.725 173.795V173.707L311.656 220.992L306.471 229.518L315.26 238.043L325.279 285.328Z" fill="white"/>
<path d="M190.545 189.58L158.377 206.631V184.57C158.377 177.539 153.719 173.994 144.402 173.936H144.139C134.881 173.936 130.252 177.48 130.252 184.57V274.482C130.252 281.572 134.91 285.117 144.227 285.117C153.66 285.117 158.377 281.572 158.377 274.482V250.752L190.545 233.789V284.062C190.545 305.977 175.105 316.992 144.227 317.109C113.465 317.109 98.084 306.094 98.084 284.062V238.096L91.5 229.5L98.084 221.045V174.902C98.084 152.93 113.465 141.943 144.227 141.943C175.105 141.943 190.545 152.93 190.545 174.902V189.58Z" fill="white"/>
<path d="M216 370L616 370C594.105 395.319 512 447.718 411.676 445.957C311.351 444.195 238.703 394.218 216 370Z" fill="white"/>
<path d="M616 76H216C237.895 50.6811 320 -1.718 420.324 0.0433147C520.649 1.80463 593.297 51.7819 616 76Z" fill="white"/>
<path d="M287.113 377.399L291.832 378.472L285.003 408.505L280.284 407.432L287.113 377.399Z" fill="black"/>
<path d="M307.903 382.109L313.888 383.133L315.419 402.099L315.506 402.114L318.615 383.942L322.866 384.669L317.671 415.028L312.77 414.189L310.837 391.048L310.751 391.033L306.959 413.195L302.708 412.467L307.903 382.109Z" fill="black"/>
<path d="M345.533 388.178L358.266 389.525L357.803 393.901L349.884 393.063L348.981 401.595L355.195 402.253L354.732 406.628L348.518 405.971L347.107 419.317L342.294 418.807L345.533 388.178Z" fill="black"/>
<path d="M384.02 422.937C381.646 422.836 379.858 422.084 378.656 420.682C377.453 419.28 376.904 417.348 377.01 414.887L377.701 398.71C377.806 396.248 378.518 394.37 379.836 393.076C381.154 391.781 382.999 391.185 385.373 391.286C387.747 391.388 389.535 392.14 390.738 393.542C391.94 394.944 392.489 396.875 392.384 399.337L391.692 415.514C391.587 417.976 390.876 419.854 389.558 421.148C388.24 422.443 386.394 423.039 384.02 422.937ZM384.208 418.542C385.879 418.613 386.757 417.638 386.844 415.615L387.561 398.823C387.648 396.801 386.856 395.754 385.185 395.682C383.515 395.611 382.636 396.586 382.55 398.609L381.832 415.401C381.746 417.423 382.538 418.47 384.208 418.542Z" fill="black"/>
<path d="M418.603 396.991L413.545 397.099L413.451 392.7L428.407 392.381L428.501 396.78L423.442 396.888L424.006 423.282L419.167 423.385L418.603 396.991Z" fill="black"/>
<path d="M449.514 391.63L462.669 390.541L463.032 394.926L454.701 395.616L455.372 403.728L461.994 403.18L462.357 407.565L455.735 408.113L456.516 417.541L464.847 416.851L465.21 421.236L452.055 422.325L449.514 391.63Z" fill="black"/>
<path d="M493.677 418.597C491.383 418.929 489.532 418.53 488.124 417.4C486.744 416.266 485.882 414.509 485.538 412.128L483.166 395.755C482.822 393.375 483.15 391.445 484.151 389.966C485.181 388.483 486.843 387.576 489.136 387.244C491.429 386.912 493.266 387.313 494.645 388.447C496.054 389.576 496.93 391.331 497.275 393.712L497.742 396.934L493.213 397.59L492.702 394.063C492.429 392.176 491.494 391.348 489.897 391.579C488.301 391.811 487.639 392.87 487.912 394.757L490.378 411.783C490.647 413.641 491.58 414.454 493.177 414.223C494.773 413.992 495.437 412.947 495.168 411.089L494.493 406.43L499.022 405.774L499.646 410.085C499.991 412.466 499.649 414.397 498.618 415.88C497.617 417.359 495.97 418.265 493.677 418.597Z" fill="black"/>
<path d="M516.63 383.477L521.365 382.471L523.971 394.737L529.049 393.658L526.443 381.392L531.178 380.386L537.578 410.514L532.844 411.519L529.964 397.962L524.885 399.041L527.765 412.598L523.031 413.604L516.63 383.477Z" fill="black"/>
<path d="M141 71.5C141 69.0147 143.015 67 145.5 67H196.5C198.985 67 201 69.0147 201 71.5V71.5C201 73.9853 198.985 76 196.5 76H145.5C143.015 76 141 73.9853 141 71.5V71.5Z" fill="#D9D9D9"/>
<path d="M141 374.5C141 372.015 143.015 370 145.5 370H196.5C198.985 370 201 372.015 201 374.5V374.5C201 376.985 198.985 379 196.5 379H145.5C143.015 379 141 376.985 141 374.5V374.5Z" fill="white"/>
<path d="M632 374.5C632 372.015 634.015 370 636.5 370H687.5C689.985 370 692 372.015 692 374.5V374.5C692 376.985 689.985 379 687.5 379H636.5C634.015 379 632 376.985 632 374.5V374.5Z" fill="white"/>
<path d="M632 71.5C632 69.0147 634.015 67 636.5 67H687.5C689.985 67 692 69.0147 692 71.5V71.5C692 73.9853 689.985 76 687.5 76H636.5C634.015 76 632 73.9853 632 71.5V71.5Z" fill="white"/>
</svg>
