<?xml version="1.0" encoding="UTF-8"?>
<svg xmlns="http://www.w3.org/2000/svg" width="60" height="61" viewBox="0 0 60 61" fill="none">
  <path opacity="0.2" fill-rule="evenodd" clip-rule="evenodd" d="M19.1454 55.2885C21.422 53.9191 23.6597 51.8237 25.4363 49.7014C25.8295 49.4837 26.2213 49.2663 26.6096 49.0509C27.7734 48.4053 28.9058 47.7771 29.9493 47.2074H37.556C39.4339 50.0474 42.5374 53.376 45.7163 55.2885C53.0443 59.6967 56.8942 54.8619 57.8143 47.5648C58.4944 42.179 56.7983 31.4934 54.8178 26.3562C52.3938 20.0701 49.32 17.3864 45.8746 16.8194C42.4929 16.2629 38.9417 17.8205 35.3578 20.0064C34.8613 20.3094 34.3419 20.5307 33.812 20.6705C34.2262 17.8885 35.5779 16.5572 36.9117 15.2439L36.9122 15.2434C38.8363 13.3477 40.7312 11.4808 40.7312 6.70638C40.7312 6.0095 40.1661 5.44434 39.4686 5.44434C38.7717 5.44434 38.2065 6.0095 38.2065 6.70638C38.2065 10.4341 36.6886 11.9294 35.1475 13.4477L35.1463 13.4488L35.146 13.4492C33.4277 15.1421 31.6854 16.8587 31.2637 20.7224C30.6602 20.5882 30.0679 20.3496 29.5046 20.0064C25.9206 17.8205 22.3695 16.2629 18.9877 16.8194C15.5423 17.3864 12.4685 20.0701 10.0446 26.3562C8.06404 31.494 6.36792 42.1784 7.0481 47.5648C7.9682 54.8613 11.818 59.6973 19.1454 55.2885Z" fill="#93BC93"></path>
  <path fill-rule="evenodd" clip-rule="evenodd" d="M21.7533 42.9838H33.3844C33.8518 42.9838 34.2599 43.238 34.4782 43.6158C36.1354 46.2994 39.1152 49.6063 42.1463 51.4298C47.7955 54.8282 49.773 50.9772 50.4575 45.55C50.6208 44.2559 50.629 42.5976 50.5195 40.7693H53.0367C53.145 42.6997 53.1291 44.4624 52.9519 45.8653C52.0318 53.1624 48.182 57.9973 40.854 53.5891C37.675 51.6765 34.5716 48.348 32.6937 45.5079H22.444C20.5661 48.348 17.4626 51.6765 14.283 53.5891C6.95565 57.9979 3.10583 53.1618 2.18573 45.8653C1.50555 40.4789 3.20167 29.7945 5.18223 24.6567C7.60615 18.3706 10.6799 15.687 14.1254 15.12C17.5071 14.5634 21.0583 16.1211 24.6422 18.3069C25.2055 18.6501 25.7979 18.8888 26.4014 19.023C26.8231 15.1592 28.5653 13.4426 30.2836 11.7497L30.284 11.7494L30.2852 11.7482C31.8263 10.2299 33.3442 8.73458 33.3442 5.00692C33.3442 4.31004 33.9093 3.74487 34.6062 3.74487C35.3037 3.74487 35.8689 4.31004 35.8689 5.00692C35.8689 9.78135 33.974 11.6482 32.0499 13.5439L32.0493 13.5444C30.7156 14.8578 29.3639 16.1891 28.9496 18.971C29.4795 18.8313 29.9989 18.6099 30.4954 18.3069C34.0794 16.1211 37.6305 14.5634 41.0123 15.12C44.4577 15.687 47.5315 18.3706 49.9554 24.6567C51.2284 27.9586 52.3839 33.5527 52.8664 38.5584H50.3393C49.8618 33.8493 48.7714 28.5804 47.6088 25.5638C45.5633 20.2584 43.1808 18.028 40.6079 17.6051C37.9712 17.171 34.9407 18.545 31.8069 20.4569C29.1542 22.0745 25.9834 22.0745 23.3313 20.4569C20.1969 18.545 17.1664 17.171 14.5298 17.6051C11.9574 18.0287 9.57496 20.2584 7.52886 25.5638C5.70226 30.3022 4.05437 40.5946 4.68014 45.55C5.36465 50.9772 7.34211 54.8282 12.9913 51.4298C16.0342 49.5995 19.0258 46.2741 20.6786 43.5849C20.916 43.1978 21.3297 42.9845 21.7533 42.9838ZM36.7104 30.9496H37.8197C39.4794 30.9496 39.4794 33.4737 37.8197 33.4737H36.7104C35.0502 33.4737 35.0502 30.9496 36.7104 30.9496ZM44.1813 30.9496H45.2906C46.9508 30.9496 46.9508 33.4737 45.2906 33.4737H44.1813C42.5216 33.4737 42.5216 30.9496 44.1813 30.9496ZM39.7385 27.9209C39.7385 26.2613 42.2626 26.2613 42.2626 27.9209V29.0309C42.2626 30.6905 39.7385 30.6905 39.7385 29.0309V27.9209ZM39.7385 35.3924C39.7385 33.7322 42.2626 33.7322 42.2626 35.3924V36.5017C42.2626 38.162 39.7385 38.162 39.7385 36.5017V35.3924ZM13.5293 30.9496H15.2359V29.243C15.2359 27.5827 17.7606 27.5827 17.7606 29.243V30.9496H19.4666C21.1269 30.9496 21.1269 33.4737 19.4666 33.4737H17.7606V35.1803C17.7606 36.84 15.2359 36.84 15.2359 35.1803V33.4737H13.5293C11.8696 33.4737 11.8696 30.9496 13.5293 30.9496ZM16.498 24.2981C20.8684 24.2981 24.4115 27.8412 24.4115 32.2116C24.4115 36.5821 20.8684 40.1252 16.498 40.1252C12.1281 40.1252 8.58499 36.5815 8.58499 32.2116C8.58499 27.8412 12.1275 24.2981 16.498 24.2981ZM16.498 26.8221C13.5219 26.8221 11.1091 29.2349 11.1091 32.2116C11.1091 35.1877 13.5219 37.6005 16.498 37.6005C19.4747 37.6005 21.8875 35.1877 21.8875 32.2116C21.8875 29.2349 19.4747 26.8221 16.498 26.8221Z" fill="#93BC93"></path>
</svg>
