<?xml version="1.0" encoding="UTF-8"?>
<svg xmlns="http://www.w3.org/2000/svg" width="61" height="60" viewBox="0 0 61 60" fill="none">
  <rect x="19.9951" y="9.62915" width="24.937" height="43.1125" rx="4" fill="#FFEEE4"></rect>
  <path d="M40.4639 54H16.4639C15.403 54 14.3856 53.5786 13.6354 52.8284C12.8853 52.0783 12.4639 51.0609 12.4639 50V10C12.4639 8.93913 12.8853 7.92172 13.6354 7.17157C14.3856 6.42143 15.403 6 16.4639 6H40.4639C41.5247 6 42.5421 6.42143 43.2923 7.17157C44.0424 7.92172 44.4639 8.93913 44.4639 10V19C44.4639 19.2652 44.3585 19.5196 44.171 19.7071C43.9834 19.8946 43.7291 20 43.4639 20C43.1987 20 42.9443 19.8946 42.7568 19.7071C42.5692 19.5196 42.4639 19.2652 42.4639 19V10C42.4639 9.46957 42.2532 8.96086 41.8781 8.58579C41.503 8.21071 40.9943 8 40.4639 8H16.4639C15.9334 8 15.4247 8.21071 15.0497 8.58579C14.6746 8.96086 14.4639 9.46957 14.4639 10V50C14.4639 50.5304 14.6746 51.0391 15.0497 51.4142C15.4247 51.7893 15.9334 52 16.4639 52H40.4639C40.9943 52 41.503 51.7893 41.8781 51.4142C42.2532 51.0391 42.4639 50.5304 42.4639 50V41C42.4639 40.7348 42.5692 40.4804 42.7568 40.2929C42.9443 40.1054 43.1987 40 43.4639 40C43.7291 40 43.9834 40.1054 44.171 40.2929C44.3585 40.4804 44.4639 40.7348 44.4639 41V50C44.4639 51.0609 44.0424 52.0783 43.2923 52.8284C42.5421 53.5786 41.5247 54 40.4639 54Z" fill="#FF7E45"></path>
  <path d="M38.4639 14H18.4639C18.1987 14 17.9443 13.8946 17.7568 13.7071C17.5692 13.5196 17.4639 13.2652 17.4639 13C17.4639 12.7348 17.5692 12.4804 17.7568 12.2929C17.9443 12.1054 18.1987 12 18.4639 12H38.4639C38.7291 12 38.9834 12.1054 39.171 12.2929C39.3585 12.4804 39.4639 12.7348 39.4639 13C39.4639 13.2652 39.3585 13.5196 39.171 13.7071C38.9834 13.8946 38.7291 14 38.4639 14Z" fill="#FF7E45"></path>
  <path d="M38.4639 48H18.4639C18.1987 48 17.9443 47.8946 17.7568 47.7071C17.5692 47.5196 17.4639 47.2652 17.4639 47C17.4639 46.7348 17.5692 46.4804 17.7568 46.2929C17.9443 46.1054 18.1987 46 18.4639 46H38.4639C38.7291 46 38.9834 46.1054 39.171 46.2929C39.3585 46.4804 39.4639 46.7348 39.4639 47C39.4639 47.2652 39.3585 47.5196 39.171 47.7071C38.9834 47.8946 38.7291 48 38.4639 48Z" fill="#FF7E45"></path>
  <path d="M29.4637 35.9999C29.1985 35.9999 28.9441 35.8945 28.7567 35.7069L23.7567 30.7069C23.5692 30.5194 23.4639 30.2651 23.4639 29.9999C23.4639 29.7348 23.5692 29.4804 23.7567 29.2929L28.7567 24.2929C28.9453 24.1108 29.1979 24.01 29.4601 24.0122C29.7223 24.0145 29.9731 24.1197 30.1585 24.3051C30.3439 24.4905 30.449 24.7413 30.4513 25.0035C30.4536 25.2657 30.3528 25.5183 30.1707 25.7069L25.8777 29.9999L30.1707 34.2929C30.3105 34.4328 30.4057 34.6109 30.4442 34.8049C30.4828 34.9988 30.463 35.1999 30.3873 35.3826C30.3117 35.5653 30.1835 35.7214 30.0191 35.8313C29.8547 35.9412 29.6614 35.9999 29.4637 35.9999Z" fill="#FF7E45"></path>
  <path d="M43.4637 35.9999C43.2659 35.9999 43.0726 35.9412 42.9082 35.8313C42.7438 35.7214 42.6156 35.5653 42.54 35.3826C42.4643 35.1999 42.4445 34.9988 42.4831 34.8049C42.5216 34.6109 42.6168 34.4328 42.7567 34.2929L47.0497 29.9999L42.7567 25.7069C42.5745 25.5183 42.4737 25.2657 42.476 25.0035C42.4783 24.7413 42.5834 24.4905 42.7688 24.3051C42.9542 24.1197 43.2051 24.0145 43.4673 24.0122C43.7294 24.01 43.9821 24.1108 44.1707 24.2929L49.1707 29.2929C49.3581 29.4804 49.4634 29.7348 49.4634 29.9999C49.4634 30.2651 49.3581 30.5194 49.1707 30.7069L44.1707 35.7069C43.9832 35.8945 43.7288 35.9999 43.4637 35.9999Z" fill="#FF7E45"></path>
  <path d="M33.4638 35.9999C33.2934 35.9998 33.1259 35.9562 32.9771 35.8732C32.8283 35.7902 32.7032 35.6705 32.6136 35.5255C32.5241 35.3806 32.473 35.2151 32.4654 35.0449C32.4577 34.8747 32.4937 34.7053 32.5698 34.5529L37.5698 24.5529C37.6884 24.3156 37.8964 24.135 38.148 24.051C38.3997 23.967 38.6745 23.9864 38.9118 24.1049C39.1492 24.2235 39.3297 24.4315 39.4138 24.6831C39.4978 24.9348 39.4784 25.2096 39.3598 25.4469L34.3598 35.4469C34.2767 35.6133 34.1488 35.7532 33.9905 35.8509C33.8322 35.9486 33.6498 36.0002 33.4638 35.9999Z" fill="#FF7E45"></path>
</svg>
